<!DOCTYPE svg PUBLIC "-//W3C//DTD SVG 1.1//EN" "http://www.w3.org/Graphics/SVG/1.1/DTD/svg11.dtd">
<!-- Uploaded to: SVG Repo, www.svgrepo.com, Transformed by: SVG Repo Mixer Tools -->
<svg width="800px" height="800px" viewBox="0 0 20.828 20.828" xmlns="http://www.w3.org/2000/svg" fill="#000000">
<g id="SVGRepo_bgCarrier" stroke-width="0"/>
<g id="SVGRepo_tracerCarrier" stroke-linecap="round" stroke-linejoin="round"/>
<g id="SVGRepo_iconCarrier"> <g id="snow-2" transform="translate(-1.586 -1.586)"> <circle id="secondary" fill="#2ca9bc" cx="3" cy="3" r="3" transform="translate(9 9)"/> <path id="primary" d="M12,15a3,3,0,1,1,3-3A3,3,0,0,1,12,15ZM12,5V9m5-1.95L14.12,9.88M19,12H15m2,5-2.83-2.83M12,19V15M7.05,17l2.83-2.83M5,12H9M7.05,7.05,9.88,9.88" fill="none" stroke="#000000" stroke-linecap="round" stroke-linejoin="round" stroke-width="2"/> <path id="primary-2" data-name="primary" d="M14,3,12,5,10,3" fill="none" stroke="#000000" stroke-linecap="round" stroke-linejoin="round" stroke-width="2"/> <path id="primary-3" data-name="primary" d="M21,10l-2,2,2,2" fill="none" stroke="#000000" stroke-linecap="round" stroke-linejoin="round" stroke-width="2"/> <path id="primary-4" data-name="primary" d="M14,21l-2-2-2,2" fill="none" stroke="#000000" stroke-linecap="round" stroke-linejoin="round" stroke-width="2"/> <path id="primary-5" data-name="primary" d="M3,14l2-2L3,10" fill="none" stroke="#000000" stroke-linecap="round" stroke-linejoin="round" stroke-width="2"/> </g> </g>
</svg>